<mxfile host="app.diagrams.net" modified="2024-07-02T23:00:51.492Z" agent="Mozilla/5.0 (Windows NT 10.0; Win64; x64) AppleWebKit/537.36 (KHTML, like Gecko) Chrome/126.0.0.0 Safari/537.36 Edg/126.0.0.0" etag="Yc0DYWFPp0tcgettd5pO" version="24.6.3" type="github">
  <diagram name="Page-1" id="vCbgNtt2VxWzHaMrsjzo">
    <mxGraphModel dx="693" dy="401" grid="1" gridSize="10" guides="1" tooltips="1" connect="1" arrows="1" fold="1" page="1" pageScale="1" pageWidth="850" pageHeight="1100" math="0" shadow="0">
      <root>
        <mxCell id="0" />
        <mxCell id="1" parent="0" />
        <mxCell id="WBWsZg22Cr-7WsARNvkE-14" value="" style="edgeStyle=orthogonalEdgeStyle;rounded=0;orthogonalLoop=1;jettySize=auto;html=1;" edge="1" parent="1" source="WBWsZg22Cr-7WsARNvkE-1" target="WBWsZg22Cr-7WsARNvkE-2">
          <mxGeometry relative="1" as="geometry" />
        </mxCell>
        <mxCell id="WBWsZg22Cr-7WsARNvkE-1" value="&lt;b&gt;&lt;font style=&quot;font-size: 25px;&quot;&gt;START&lt;/font&gt;&lt;/b&gt;" style="html=1;dashed=0;whiteSpace=wrap;shape=mxgraph.dfd.start" vertex="1" parent="1">
          <mxGeometry x="320" y="70" width="170" height="60" as="geometry" />
        </mxCell>
        <mxCell id="WBWsZg22Cr-7WsARNvkE-15" style="edgeStyle=orthogonalEdgeStyle;rounded=0;orthogonalLoop=1;jettySize=auto;html=1;entryX=0.5;entryY=0;entryDx=0;entryDy=0;" edge="1" parent="1" source="WBWsZg22Cr-7WsARNvkE-2" target="WBWsZg22Cr-7WsARNvkE-5">
          <mxGeometry relative="1" as="geometry">
            <Array as="points">
              <mxPoint x="405" y="240" />
              <mxPoint x="295" y="240" />
            </Array>
          </mxGeometry>
        </mxCell>
        <mxCell id="WBWsZg22Cr-7WsARNvkE-2" value="" style="shape=parallelogram;perimeter=parallelogramPerimeter;whiteSpace=wrap;html=1;dashed=0;size=0.09051724137931035;" vertex="1" parent="1">
          <mxGeometry x="332.5" y="160" width="145" height="50" as="geometry" />
        </mxCell>
        <mxCell id="WBWsZg22Cr-7WsARNvkE-19" value="" style="edgeStyle=orthogonalEdgeStyle;rounded=0;orthogonalLoop=1;jettySize=auto;html=1;" edge="1" parent="1" source="WBWsZg22Cr-7WsARNvkE-3" target="WBWsZg22Cr-7WsARNvkE-8">
          <mxGeometry relative="1" as="geometry" />
        </mxCell>
        <mxCell id="WBWsZg22Cr-7WsARNvkE-3" value="" style="shape=rhombus;html=1;dashed=0;whiteSpace=wrap;perimeter=rhombusPerimeter;" vertex="1" parent="1">
          <mxGeometry x="367.5" y="270" width="75" height="70" as="geometry" />
        </mxCell>
        <mxCell id="WBWsZg22Cr-7WsARNvkE-18" value="" style="edgeStyle=orthogonalEdgeStyle;rounded=0;orthogonalLoop=1;jettySize=auto;html=1;" edge="1" parent="1" source="WBWsZg22Cr-7WsARNvkE-5" target="WBWsZg22Cr-7WsARNvkE-7">
          <mxGeometry relative="1" as="geometry" />
        </mxCell>
        <mxCell id="WBWsZg22Cr-7WsARNvkE-5" value="" style="shape=rhombus;html=1;dashed=0;whiteSpace=wrap;perimeter=rhombusPerimeter;" vertex="1" parent="1">
          <mxGeometry x="257.5" y="270" width="75" height="70" as="geometry" />
        </mxCell>
        <mxCell id="WBWsZg22Cr-7WsARNvkE-20" value="" style="edgeStyle=orthogonalEdgeStyle;rounded=0;orthogonalLoop=1;jettySize=auto;html=1;" edge="1" parent="1" source="WBWsZg22Cr-7WsARNvkE-6" target="WBWsZg22Cr-7WsARNvkE-9">
          <mxGeometry relative="1" as="geometry" />
        </mxCell>
        <mxCell id="WBWsZg22Cr-7WsARNvkE-6" value="" style="shape=rhombus;html=1;dashed=0;whiteSpace=wrap;perimeter=rhombusPerimeter;" vertex="1" parent="1">
          <mxGeometry x="477.5" y="270" width="75" height="70" as="geometry" />
        </mxCell>
        <mxCell id="WBWsZg22Cr-7WsARNvkE-21" style="edgeStyle=orthogonalEdgeStyle;rounded=0;orthogonalLoop=1;jettySize=auto;html=1;" edge="1" parent="1" source="WBWsZg22Cr-7WsARNvkE-7" target="WBWsZg22Cr-7WsARNvkE-12">
          <mxGeometry relative="1" as="geometry" />
        </mxCell>
        <mxCell id="WBWsZg22Cr-7WsARNvkE-7" value="" style="shape=parallelogram;perimeter=parallelogramPerimeter;whiteSpace=wrap;html=1;dashed=0;" vertex="1" parent="1">
          <mxGeometry x="245" y="370" width="100" height="50" as="geometry" />
        </mxCell>
        <mxCell id="WBWsZg22Cr-7WsARNvkE-22" style="edgeStyle=orthogonalEdgeStyle;rounded=0;orthogonalLoop=1;jettySize=auto;html=1;" edge="1" parent="1" source="WBWsZg22Cr-7WsARNvkE-8" target="WBWsZg22Cr-7WsARNvkE-12">
          <mxGeometry relative="1" as="geometry" />
        </mxCell>
        <mxCell id="WBWsZg22Cr-7WsARNvkE-8" value="" style="shape=parallelogram;perimeter=parallelogramPerimeter;whiteSpace=wrap;html=1;dashed=0;" vertex="1" parent="1">
          <mxGeometry x="355" y="370" width="100" height="50" as="geometry" />
        </mxCell>
        <mxCell id="WBWsZg22Cr-7WsARNvkE-23" style="edgeStyle=orthogonalEdgeStyle;rounded=0;orthogonalLoop=1;jettySize=auto;html=1;" edge="1" parent="1" source="WBWsZg22Cr-7WsARNvkE-9" target="WBWsZg22Cr-7WsARNvkE-12">
          <mxGeometry relative="1" as="geometry" />
        </mxCell>
        <mxCell id="WBWsZg22Cr-7WsARNvkE-9" value="" style="shape=parallelogram;perimeter=parallelogramPerimeter;whiteSpace=wrap;html=1;dashed=0;" vertex="1" parent="1">
          <mxGeometry x="465" y="370" width="100" height="50" as="geometry" />
        </mxCell>
        <mxCell id="WBWsZg22Cr-7WsARNvkE-12" value="" style="html=1;dashed=0;whiteSpace=wrap;shape=mxgraph.dfd.start" vertex="1" parent="1">
          <mxGeometry x="292.5" y="470" width="225" height="70" as="geometry" />
        </mxCell>
        <mxCell id="WBWsZg22Cr-7WsARNvkE-16" value="" style="endArrow=classic;html=1;rounded=0;exitX=0.5;exitY=1;exitDx=0;exitDy=0;entryX=0.5;entryY=0;entryDx=0;entryDy=0;" edge="1" parent="1" source="WBWsZg22Cr-7WsARNvkE-2" target="WBWsZg22Cr-7WsARNvkE-3">
          <mxGeometry width="50" height="50" relative="1" as="geometry">
            <mxPoint x="420" y="360" as="sourcePoint" />
            <mxPoint x="470" y="310" as="targetPoint" />
          </mxGeometry>
        </mxCell>
        <mxCell id="WBWsZg22Cr-7WsARNvkE-17" value="" style="endArrow=classic;html=1;rounded=0;exitX=0.5;exitY=1;exitDx=0;exitDy=0;entryX=0.5;entryY=0;entryDx=0;entryDy=0;" edge="1" parent="1" source="WBWsZg22Cr-7WsARNvkE-2" target="WBWsZg22Cr-7WsARNvkE-6">
          <mxGeometry width="50" height="50" relative="1" as="geometry">
            <mxPoint x="420" y="360" as="sourcePoint" />
            <mxPoint x="470" y="310" as="targetPoint" />
            <Array as="points">
              <mxPoint x="405" y="240" />
              <mxPoint x="515" y="240" />
            </Array>
          </mxGeometry>
        </mxCell>
      </root>
    </mxGraphModel>
  </diagram>
</mxfile>
